<?xml version="1.0" standalone="no"?>
<!DOCTYPE svg PUBLIC "-//W3C//DTD SVG 20010904//EN"
 "http://www.w3.org/TR/2001/REC-SVG-20010904/DTD/svg10.dtd">
<svg version="1.0" xmlns="http://www.w3.org/2000/svg"
 width="512.000000pt" height="512.000000pt" viewBox="0 0 512.000000 512.000000"
 preserveAspectRatio="xMidYMid meet">

<g transform="translate(0.000000,512.000000) scale(0.100000,-0.100000)"
fill="#ffffff" stroke="none">
<path d="M2314 4736 c-50 -22 -61 -87 -21 -124 21 -20 34 -22 154 -22 130 0
132 0 152 26 28 35 26 67 -3 101 -24 27 -27 28 -138 31 -80 1 -122 -2 -144
-12z"/>
<path d="M2884 4736 c-41 -18 -57 -61 -39 -103 7 -16 20 -33 30 -37 9 -3 248
-6 530 -6 l514 0 20 26 c28 35 26 67 -3 101 l-24 28 -499 2 c-404 2 -504 0
-529 -11z"/>
<path d="M4379 4741 c-83 -17 -173 -95 -198 -174 -5 -18 -20 -99 -31 -182 -32
-223 -48 -292 -89 -380 -36 -76 -620 -1142 -666 -1215 -62 -98 -187 -206 -310
-268 -119 -60 -285 -96 -390 -85 l-55 6 0 99 c0 91 -2 101 -24 123 -14 14 -41
26 -67 29 -65 9 -2174 206 -2232 208 -43 2 -52 -1 -73 -25 -30 -35 -30 -68 -1
-102 l22 -26 844 -79 c465 -44 853 -80 863 -80 17 0 18 -40 18 -940 0 -917 0
-940 -19 -940 -20 0 -1597 -166 -1668 -175 -76 -11 -106 -78 -59 -132 20 -23
31 -27 69 -25 25 1 387 38 804 82 1589 169 1472 155 1496 179 19 19 23 36 27
138 l5 117 70 24 c184 62 433 99 600 88 160 -10 250 -37 430 -126 180 -90 270
-118 400 -127 257 -17 493 109 657 350 73 108 105 240 94 393 -10 152 -51 284
-151 497 -48 104 -65 187 -65 332 0 188 35 373 105 554 47 122 65 216 72 372
7 168 -7 289 -53 457 -41 151 -43 220 -9 351 13 51 30 131 36 177 33 251 -95
443 -333 499 -68 16 -67 16 -119 6z m135 -178 c63 -22 106 -61 134 -122 36
-78 34 -176 -7 -336 -42 -163 -42 -260 -1 -405 60 -208 75 -400 45 -576 -9
-49 -38 -154 -65 -234 -68 -201 -90 -314 -97 -502 -9 -234 6 -304 110 -533
117 -255 138 -481 59 -630 -40 -75 -184 -216 -259 -254 -186 -93 -373 -77
-618 54 -173 92 -303 128 -507 141 -163 10 -415 -24 -594 -80 l-74 -24 0 610
0 611 58 -7 c68 -7 217 14 317 45 192 59 389 200 494 353 32 47 622 1110 686
1236 50 98 72 183 100 378 30 212 38 242 67 269 38 35 67 36 152 6z m-2189
-2008 c77 -8 143 -15 148 -15 4 0 6 -399 5 -887 l-3 -888 -155 -17 c-85 -9
-158 -14 -162 -11 -5 2 -8 416 -8 919 0 864 1 914 18 914 9 0 80 -7 157 -15z"/>
<path d="M3691 1791 c-11 -11 -23 -37 -26 -58 -22 -128 -73 -169 -223 -180
-88 -7 -112 -24 -112 -78 0 -70 60 -95 182 -77 91 14 187 60 233 114 71 84
100 225 55 273 -29 31 -82 33 -109 6z"/>
<path d="M1944 4143 c-57 -11 -79 -98 -35 -134 22 -18 50 -19 548 -19 323 0
531 4 543 10 26 14 42 65 30 96 -20 53 -37 54 -572 53 -271 -1 -503 -4 -514
-6z"/>
<path d="M3304 4140 c-28 -11 -54 -48 -54 -76 0 -12 9 -33 21 -48 l20 -26 195
0 c108 0 203 4 214 10 26 14 42 65 30 96 -17 44 -62 54 -242 53 -90 0 -173 -4
-184 -9z"/>
<path d="M1085 3539 c-51 -29 -61 -90 -22 -127 22 -21 33 -22 191 -22 164 0
167 0 191 25 32 31 32 66 1 102 l-24 28 -159 3 c-104 1 -165 -2 -178 -9z"/>
<path d="M1890 3537 c-38 -19 -55 -61 -40 -98 7 -16 21 -34 31 -39 11 -6 293
-10 729 -10 l711 0 24 25 c32 31 32 66 1 102 l-24 28 -704 2 c-554 2 -708 0
-728 -10z"/>
</g>
</svg>
