<?xml version="1.0" standalone="no"?>
<!DOCTYPE svg PUBLIC "-//W3C//DTD SVG 20010904//EN"
 "http://www.w3.org/TR/2001/REC-SVG-20010904/DTD/svg10.dtd">
<svg version="1.0" xmlns="http://www.w3.org/2000/svg"
 width="512.000000pt" height="512.000000pt" viewBox="0 0 512.000000 512.000000"
 preserveAspectRatio="xMidYMid meet">

<g transform="translate(0.000000,512.000000) scale(0.100000,-0.100000)"
fill="#ffffff" stroke="none">
<path d="M2880 4735 c-61 -19 -121 -72 -165 -145 l-36 -60 -52 0 c-154 -1
-321 -72 -431 -185 -61 -61 -95 -113 -236 -356 -95 -163 -175 -314 -189 -354
-34 -100 -36 -200 -12 -640 21 -398 25 -424 76 -510 l24 -42 -585 -1012 c-321
-557 -584 -1014 -584 -1016 0 -4 93 -56 95 -53 1 2 260 451 575 998 315 547
576 998 579 1001 3 4 53 -22 111 -57 58 -35 108 -63 111 -64 9 0 58 83 53 91
-2 4 -56 37 -120 75 -123 73 -163 112 -190 186 -18 51 -58 712 -51 868 4 125
17 155 207 481 169 292 232 369 340 422 133 64 287 73 409 24 84 -34 418 -233
464 -276 54 -51 79 -104 85 -182 4 -56 1 -75 -20 -121 -60 -130 -206 -198
-330 -154 -20 7 -83 40 -140 74 -118 68 -144 77 -197 62 -99 -26 -175 -151
-150 -245 15 -54 49 -89 144 -143 93 -53 217 -172 259 -247 69 -124 96 -268
76 -401 -16 -105 -37 -157 -120 -299 -38 -66 -69 -124 -67 -129 1 -4 21 -19
44 -33 l41 -24 58 98 c132 223 157 299 158 473 0 90 -5 132 -22 193 -12 42
-22 79 -22 81 0 2 30 5 68 8 37 3 88 14 113 25 l46 20 12 -47 c27 -106 124
-206 229 -236 54 -16 174 -16 213 0 13 6 17 -3 22 -48 7 -73 36 -134 89 -192
42 -46 143 -104 181 -104 9 0 17 -3 17 -7 0 -3 -71 -128 -157 -277 -129 -222
-170 -283 -223 -337 -107 -108 -233 -156 -389 -146 -104 6 -155 24 -298 107
-60 35 -111 65 -115 67 -7 4 -58 -70 -58 -85 0 -12 235 -146 292 -167 44 -16
46 -18 33 -39 -37 -59 -715 -1239 -713 -1241 15 -12 91 -56 93 -53 1 2 170
294 376 650 l373 648 66 0 c145 0 310 70 418 179 57 57 94 114 252 385 102
175 192 320 200 323 124 44 157 83 361 435 209 358 196 333 209 393 22 98 -26
213 -117 279 -77 56 -183 106 -241 113 -43 5 -52 9 -46 22 31 77 30 181 -4
247 -29 57 -79 102 -175 156 -94 54 -167 73 -230 58 -61 -14 -62 -14 -74 33
-24 89 -89 149 -244 229 -84 42 -167 45 -250 6 l-56 -26 -17 39 c-23 52 -97
115 -196 168 -95 50 -172 61 -250 36z m236 -156 c103 -63 128 -98 128 -174 0
-49 -24 -105 -46 -105 -6 0 -70 36 -144 80 -73 45 -157 90 -186 102 -29 12
-57 25 -62 29 -16 14 40 85 86 108 67 34 118 25 224 -40z m529 -191 c117 -68
145 -104 145 -183 0 -57 13 -31 -252 -490 -233 -402 -268 -450 -345 -473 -94
-28 -168 -9 -236 61 -80 83 -105 163 -76 246 9 24 15 30 28 25 103 -44 181
-53 269 -30 119 30 209 105 260 214 23 49 27 70 27 152 0 86 -3 101 -32 162
-19 40 -53 89 -82 118 l-50 50 44 74 c83 136 161 156 300 74z m485 -285 c90
-49 125 -76 144 -116 21 -45 21 -109 0 -150 -57 -110 -442 -758 -468 -786
-109 -118 -309 -85 -377 64 -26 56 -25 144 2 198 12 23 118 207 237 410 219
375 238 401 306 418 45 11 83 2 156 -38z m-1380 -433 c21 -11 41 -23 44 -28 6
-10 -36 -128 -50 -142 -13 -13 -100 33 -115 61 -18 35 33 118 79 128 1 1 20
-8 42 -19z m1775 -59 c86 -50 97 -59 119 -92 27 -42 35 -84 25 -129 -10 -45
-345 -627 -388 -673 -78 -86 -212 -97 -309 -27 -81 58 -114 185 -73 275 19 44
332 582 364 629 11 15 38 37 61 48 59 27 116 19 201 -31z"/>
<path d="M1332 3367 c-25 -32 -515 -891 -516 -905 0 -9 17 -26 41 -39 l41 -23
20 32 c132 218 511 891 507 898 -4 6 -24 19 -45 30 -29 15 -40 17 -48 7z"/>
<path d="M945 1929 c-143 -248 -261 -457 -263 -463 -3 -13 83 -65 91 -56 13
16 527 914 527 921 0 9 -72 49 -87 49 -4 0 -125 -203 -268 -451z"/>
<path d="M691 2259 c-23 -40 -40 -73 -39 -74 30 -20 78 -45 86 -45 11 0 97
139 90 144 -21 16 -78 46 -86 46 -6 0 -29 -32 -51 -71z"/>
<path d="M4677 2323 c-130 -222 -528 -916 -525 -918 14 -11 90 -56 92 -53 1 2
58 100 126 218 68 118 188 326 266 462 l143 248 -43 25 c-46 27 -53 29 -59 18z"/>
<path d="M541 1999 c-23 -39 -41 -72 -41 -74 0 -6 91 -58 94 -54 1 2 12 21 24
42 12 20 31 52 42 71 l20 34 -46 26 c-26 14 -48 26 -49 26 -2 0 -22 -32 -44
-71z"/>
<path d="M3742 1477 c-133 -232 -253 -441 -267 -464 l-25 -41 46 -27 c25 -15
50 -23 54 -19 9 11 530 912 530 918 0 4 -90 57 -94 56 0 -1 -110 -191 -244
-423z"/>
<path d="M589 1312 c-8 -15 -27 -48 -42 -73 l-28 -47 45 -26 c25 -14 47 -26
49 -26 4 0 72 114 85 142 3 6 -78 58 -89 58 -2 0 -11 -12 -20 -28z"/>
<path d="M4041 1221 c-23 -38 -41 -73 -41 -78 0 -10 87 -59 93 -53 21 25 78
143 71 149 -5 4 -26 18 -46 30 l-37 22 -40 -70z"/>
<path d="M411 1004 c-24 -41 -42 -76 -40 -78 20 -14 79 -46 86 -46 6 0 29 32
51 70 l41 71 -37 22 c-20 13 -42 26 -47 29 -6 4 -30 -27 -54 -68z"/>
<path d="M3914 1003 c-6 -10 -25 -43 -42 -74 l-32 -56 48 -26 c54 -29 44 -36
101 65 l32 57 -40 25 c-48 31 -53 31 -67 9z"/>
<path d="M3341 781 c-22 -38 -41 -72 -41 -74 0 -6 92 -59 95 -55 1 2 14 26 30
53 16 28 35 60 42 72 13 20 12 23 -30 47 -24 14 -46 26 -49 26 -3 0 -24 -31
-47 -69z"/>
<path d="M3191 520 c-23 -37 -41 -72 -41 -77 0 -9 88 -58 94 -52 2 2 20 35 41
73 42 76 43 75 -27 112 -26 13 -26 13 -67 -56z"/>
</g>
</svg>
